<?xml version="1.0" encoding="UTF-8" standalone="no"?>
<!-- Created with Inkscape (http://www.inkscape.org/) -->

<svg
   xmlns:dc="http://purl.org/dc/elements/1.1/"
   xmlns:cc="http://creativecommons.org/ns#"
   xmlns:rdf="http://www.w3.org/1999/02/22-rdf-syntax-ns#"
   xmlns:svg="http://www.w3.org/2000/svg"
   xmlns="http://www.w3.org/2000/svg"
   xmlns:xlink="http://www.w3.org/1999/xlink"
   xmlns:sodipodi="http://sodipodi.sourceforge.net/DTD/sodipodi-0.dtd"
   xmlns:inkscape="http://www.inkscape.org/namespaces/inkscape"
   width="12.7mm"
   height="13.076453mm"
   id="svg2"
   version="1.1"
   inkscape:version="0.91 r13725"
   sodipodi:docname="proveedor.svg">
  <defs
     id="defs4">
    <filter
       inkscape:collect="always"
       id="filter3826">
      <feGaussianBlur
         inkscape:collect="always"
         stdDeviation="0.063677797"
         id="feGaussianBlur3828" />
    </filter>
    <symbol
       id="CurrencyExchange">
      <title
         id="title4236">Currency Exchange</title>
      <rect
         x="11"
         y="14"
         width="50"
         height="22"
         style="fill:none;stroke-width:5.25"
         id="rect4238" />
      <g
         style="stroke:none"
         id="g4240">
        <!-- Dollar -->
        <circle
           cx="36"
           cy="25"
           r="7.25"
           id="circle4242" />
        <path
           d="m 35.1,19 0,1.2 c -0.6,0.1 -1.2,0.4 -1.6,0.7 -0.7,0.5 -1.2,1.2 -1.2,2.1 0,0.7 0.3,1.5 0.9,2 0.4,0.4 1.2,0.7 1.9,0.8 l 0,2.1 C 34.4,27.7 33.9,27 33.9,26.6 l -1.8,0 c 0,1 0.5,1.7 1.2,2.3 0.5,0.4 1.1,0.8 1.8,0.9 l 0,1.2 1.8,0 0,-1.2 c 0.6,-0.1 1.2,-0.3 1.7,-0.6 0.7,-0.5 1.3,-1.25 1.3,-2.2 0,-0.8 -0.3,-1.6 -1,-2.1 -0.5,-0.3 -1.3,-0.6 -2,-0.7 l 0,-2.1 c 0.6,0.3 1,0.9 1,1.3 l 1.8,0 c 0,-1.5 -1.2,-2.8 -2.8,-3.2 l 0,-1.2 z m 0,4.9 c -0.8,-0.2 -1,-0.5 -1,-0.9 0,-0.4 0.5,-0.8 1,-0.9 z m 1.8,2.1 c 0.8,0.2 1.2,0.4 1.2,1 0,0.5 -0.6,0.8 -1.2,1 z"
           style="fill:white"
           id="path4244" />
        <!-- Pound -->
        <circle
           cx="48"
           cy="38"
           r="7.25"
           id="circle4246" />
        <path
           d="m 48,32.6 c -1.6,0 -3.1,1.1 -3.1,2.7 0,0.5 0.1,0.9 0.2,1.3 l -1.1,0 0,1.8 1.4,0 c 0.2,1 -0.3,1.5 -0.8,2.2 l 0,1.8 6.6,0 0,-1.8 -4.4,0 c 0.4,-0.8 0.6,-1.5 0.5,-2.2 l 1.5,0 0,-1.8 -1.9,0 c -0.1,-0.5 -0.2,-1 -0.2,-1.3 0,-0.4 0.5,-0.9 1.3,-0.9 1,0 1.3,0.7 1.3,1.5 l 1.8,0 c 0,-1 -0.3,-1.8 -0.9,-2.4 -0.6,-0.6 -1.3,-0.9 -2.2,-0.9 z"
           style="fill:white"
           id="path4248" />
        <!-- Franc -->
        <circle
           cx="21"
           cy="48"
           r="7.25"
           id="circle4250" />
        <path
           d="m 21.9,46.6 0,5.8 1.8,0 0,-2.4 c 0,-1.6 1.8,-1.7 1.8,-1.7 l 0,-1.7 c -0.4,0 -1.3,0.2 -1.8,1 l 0,-1 z M 21,42.8 c -1.6,0 -2.7,1.2 -2.7,2.7 l 0,1.1 -1.1,0 0,1.8 1.1,0 0,4 1.8,0 0,-4 1.3,0 0,-1.8 -1.3,0 0,-1.1 c 0,-0.7 0.3,-1 0.9,-1 0.6,0 0.9,0.3 0.9,1 l 0,0.5 1.8,0 0,-0.5 C 23.7,44 22.6,42.8 21,42.8 z"
           style="fill:white"
           id="path4252" />
        <!-- Yen -->
        <circle
           cx="43"
           cy="56"
           r="7.25"
           id="circle4254" />
        <path
           d="m 41,51.8 2,3.4 2,-3.4 2,0 -3.1,5.4 2.3,0 0,1.8 -2.3,0 0,2.4 -1.8,0 0,-2.4 -2.3,0 0,-1.8 2.3,0 -3.1,-5.4 z"
           style="fill:white"
           id="path4256" />
      </g>
    </symbol>
  </defs>
  <sodipodi:namedview
     id="base"
     pagecolor="#ffffff"
     bordercolor="#666666"
     borderopacity="1.0"
     inkscape:pageopacity="0.0"
     inkscape:pageshadow="2"
     inkscape:zoom="5.6"
     inkscape:cx="30.589265"
     inkscape:cy="44.51894"
     inkscape:document-units="px"
     inkscape:current-layer="layer1"
     showgrid="false"
     inkscape:window-width="1600"
     inkscape:window-height="854"
     inkscape:window-x="0"
     inkscape:window-y="24"
     inkscape:window-maximized="1"
     showguides="true"
     inkscape:guide-bbox="true"
     fit-margin-top="0"
     fit-margin-left="0"
     fit-margin-right="0"
     fit-margin-bottom="0">
    <sodipodi:guide
       orientation="0.75304261,0.65797175"
       position="14.964269,17.942213"
       id="guide3833" />
  </sodipodi:namedview>
  <metadata
     id="metadata7">
    <rdf:RDF>
      <cc:Work
         rdf:about="">
        <dc:format>image/svg+xml</dc:format>
        <dc:type
           rdf:resource="http://purl.org/dc/dcmitype/StillImage" />
        <dc:title></dc:title>
      </cc:Work>
    </rdf:RDF>
  </metadata>
  <g
     inkscape:label="Capa 1"
     inkscape:groupmode="layer"
     id="layer1"
     transform="translate(-11.925781,10.878378)">
    <circle
       id="path3879"
       style="fill:#db4d37;fill-opacity:1;stroke:none"
       cx="-35.252857"
       cy="-31.856562"
       r="9.773283" />
    <g
       id="g3763"
       transform="matrix(-0.27617961,0,0,0.27270071,-41.615963,-42.850784)">
      <circle
         id="path2985"
         style="fill:none;stroke:#a52a2a;stroke-width:5.5;stroke-miterlimit:4;stroke-dasharray:none"
         cx="35.357143"
         cy="33.433609"
         r="13.214286" />
      <path
         inkscape:connector-curvature="0"
         id="path2987"
         d="M 44.999999,43.612181 59.821428,58.433609"
         style="fill:none;stroke:#a52a2a;stroke-width:7.0999999;stroke-linecap:round;stroke-linejoin:miter;stroke-miterlimit:4;stroke-dasharray:none;stroke-opacity:1" />
      <path
         sodipodi:nodetypes="cc"
         inkscape:connector-curvature="0"
         id="path3757"
         d="m 34.468003,24.37691 c 4.791986,-0.91898 7.763596,2.356538 9.355964,5.463287"
         style="fill:none;stroke:#f08080;stroke-width:1px;stroke-linecap:round;stroke-linejoin:miter;stroke-opacity:1" />
      <path
         sodipodi:nodetypes="cc"
         inkscape:connector-curvature="0"
         id="path3759"
         d="M 48.214286,43.790752 60.803572,56.558609"
         style="fill:none;stroke:#f08080;stroke-width:1px;stroke-linecap:round;stroke-linejoin:miter;stroke-opacity:1" />
      <circle
         style="fill:none;stroke:#cd5c5c;stroke-width:0.60000002;stroke-miterlimit:4;stroke-dasharray:none"
         id="path3761"
         cx="35.357143"
         cy="33.433609"
         r="13.214286" />
    </g>
    <rect
       style="fill:none;stroke:none;stroke-width:0.60000002;stroke-linecap:round;stroke-linejoin:round;stroke-miterlimit:4;stroke-dasharray:none"
       id="rect3770"
       width="160.35715"
       height="151.78572"
       x="0"
       y="0.21932381"
       inkscape:export-filename="/home/diego/iconos.png"
       inkscape:export-xdpi="90"
       inkscape:export-ydpi="90" />
    <g
       transform="matrix(0.45489697,0,0,0.44916686,-33.404705,-49.9483)"
       id="g3178"
       inkscape:export-filename="/srv/http/SalonAcertijo2015/css/imagen/iconos.png"
       inkscape:export-xdpi="90"
       inkscape:export-ydpi="90">
      <circle
         style="fill:none;stroke:#a52a2a;stroke-width:5.5;stroke-miterlimit:4;stroke-dasharray:none"
         id="path3180"
         cx="35.357143"
         cy="33.433609"
         r="13.214286" />
      <path
         style="fill:none;stroke:#a52a2a;stroke-width:7.0999999;stroke-linecap:round;stroke-linejoin:miter;stroke-miterlimit:4;stroke-dasharray:none;stroke-opacity:1"
         d="M 44.999999,43.612181 59.821428,58.433609"
         id="path3182"
         inkscape:connector-curvature="0" />
      <path
         style="fill:none;stroke:#f08080;stroke-width:1px;stroke-linecap:round;stroke-linejoin:miter;stroke-opacity:1"
         d="m 34.468003,24.37691 c 4.791986,-0.91898 7.763596,2.356538 9.355964,5.463287"
         id="path3184"
         inkscape:connector-curvature="0"
         sodipodi:nodetypes="cc" />
      <path
         style="fill:none;stroke:#f08080;stroke-width:1px;stroke-linecap:round;stroke-linejoin:miter;stroke-opacity:1"
         d="M 48.214286,43.790752 60.803572,56.558609"
         id="path3186"
         inkscape:connector-curvature="0"
         sodipodi:nodetypes="cc" />
      <circle
         id="path3188"
         style="fill:none;stroke:#cd5c5c;stroke-width:0.60000002;stroke-miterlimit:4;stroke-dasharray:none"
         cx="35.357143"
         cy="33.433609"
         r="13.214286" />
    </g>
    <path
       inkscape:connector-curvature="0"
       id="path3883"
       d="m -39.06411,-37.978993 c -2.552731,0 -4.625,2.072269 -4.625,4.625 0,1.085227 0.37326,2.079251 1,2.875 l -3.96875,4 a 0.80008001,0.80008001 0 1 0 1.125,1.125 l 4.0625,-4.03125 c 0.699145,0.429661 1.52904,0.6875 2.40625,0.6875 2.552731,0 4.65625,-2.103519 4.65625,-4.65625 0,-2.552731 -2.103519,-4.625 -4.65625,-4.625 z m 0,1.59375 c 1.688027,0 3.03125,1.343223 3.03125,3.03125 0,1.688027 -1.343223,3.0625 -3.03125,3.0625 -1.688027,0 -3.03125,-1.374473 -3.03125,-3.0625 0,-1.688027 1.343223,-3.03125 3.03125,-3.03125 z"
       style="color:#000000;font-style:normal;font-variant:normal;font-weight:normal;font-stretch:normal;font-size:medium;line-height:normal;font-family:Sans;-inkscape-font-specification:Sans;text-indent:0;text-align:start;text-decoration:none;text-decoration-line:none;letter-spacing:normal;word-spacing:normal;text-transform:none;direction:ltr;block-progression:tb;writing-mode:lr-tb;baseline-shift:baseline;text-anchor:start;display:inline;overflow:visible;visibility:visible;fill:#000000;fill-opacity:1;fill-rule:nonzero;stroke:none;stroke-width:1.60000002;marker:none;filter:url(#filter3826);enable-background:accumulate" />
    <path
       style="color:#000000;font-style:normal;font-variant:normal;font-weight:normal;font-stretch:normal;font-size:medium;line-height:normal;font-family:Sans;-inkscape-font-specification:Sans;text-indent:0;text-align:start;text-decoration:none;text-decoration-line:none;letter-spacing:normal;word-spacing:normal;text-transform:none;direction:ltr;block-progression:tb;writing-mode:lr-tb;baseline-shift:baseline;text-anchor:start;display:inline;overflow:visible;visibility:visible;fill:#dcdcdc;fill-opacity:1;fill-rule:nonzero;stroke:none;stroke-width:1.60000002;marker:none;enable-background:accumulate"
       d="m 84.804127,-9.5850496 c -9.139194,0 -16.670135,7.4190616 -16.670135,16.558255 0,9.1391926 7.530941,16.6701336 16.670135,16.6701336 3.140555,0 6.111714,-0.923105 8.614767,-2.461362 l 2.67813,2.657151 a 3.9385733,3.9385733 0 0 0 1.18173,2.81099 l 7.999426,8.034387 a 3.9385733,3.9385733 0 0 0 2.99979,1.258653 2.864417,2.864417 0 1 0 3.81791,-4.265431 3.9385733,3.9385733 0 0 0 -1.23768,-2.545271 l -7.99243,-8.034391 a 3.9385733,3.9385733 0 0 0 -2.45437,-1.181733 l -2.629186,-2.650158 c 2.243836,-2.848911 3.580166,-6.407683 3.580166,-10.2929686 0,-9.1391934 -7.41906,-16.558255 -16.558253,-16.558255 z m 0,5.7058855 c 6.043412,0 10.852367,4.80895746 10.852367,10.8523695 0,6.0434116 -4.808955,10.9642486 -10.852367,10.9642486 -6.043412,0 -10.85237,-4.920837 -10.85237,-10.9642486 0,-6.04341204 4.808958,-10.8523695 10.85237,-10.8523695 z"
       id="path3897"
       inkscape:connector-curvature="0" />
    <circle
       style="opacity:1;fill:#dcdcdc;fill-opacity:1;stroke:none;stroke-width:2.20000005;stroke-linecap:round;stroke-linejoin:round;stroke-miterlimit:4;stroke-dasharray:none;stroke-opacity:1"
       id="path8094"
       cx="100.23158"
       cy="-44.612129"
       r="9.3232851" />
    <path
       style="opacity:1;fill:#dcdcdc;fill-opacity:1;stroke:none;stroke-width:2.20000005;stroke-linecap:round;stroke-linejoin:round;stroke-miterlimit:4;stroke-dasharray:none;stroke-opacity:1"
       d="m 95.560743,-35.898043 c -5.825973,2.189935 -10.689045,8.837511 -10.607025,19.747065 l 29.901472,0 c -0.0908,-10.854267 -4.67378,-17.315894 -10.2206,-19.598577 a 9.3232853,9.3232853 0 0 1 -4.40275,1.114552 9.3232853,9.3232853 0 0 1 -4.671097,-1.26304 z"
       id="rect8096"
       inkscape:connector-curvature="0" />
    <circle
       r="6.6713734"
       cy="-51.353199"
       cx="82.963921"
       id="circle8102"
       style="opacity:1;fill:#dcdcdc;fill-opacity:1;stroke:none;stroke-width:2.20000005;stroke-linecap:round;stroke-linejoin:round;stroke-miterlimit:4;stroke-dasharray:none;stroke-opacity:1" />
    <path
       style="opacity:1;fill:#dcdcdc;fill-opacity:1;stroke:none;stroke-width:2.20000005;stroke-linecap:round;stroke-linejoin:round;stroke-miterlimit:4;stroke-dasharray:none;stroke-opacity:1"
       d="m 79.620432,-45.118076 c -4.168836,1.56703 -7.64766,6.324925 -7.58897,14.13137 l 15.202986,0 c 1.561537,-2.287452 3.503129,-3.96335 5.621061,-5.019955 -0.134842,-0.576826 -0.286904,-1.133355 -0.463353,-1.65841 a 9.3232853,9.3232853 0 0 1 -3.751549,-5.792806 c -0.790093,-0.665652 -1.638862,-1.187743 -2.526078,-1.552859 a 6.671374,6.671374 0 0 1 -3.150442,0.796108 6.671374,6.671374 0 0 1 -3.343655,-0.903448 z"
       id="path8104"
       inkscape:connector-curvature="0" />
    <use
       id="use16502"
       style="fill:#000000;stroke:#000000"
       xlink:href="#CurrencyExchange"
       transform="translate(61.461495,-32.392703)"
       x="0"
       y="0"
       width="100%"
       height="100%" />
    <g
       style="font-style:normal;font-variant:normal;font-weight:bold;font-stretch:normal;font-size:12.23599148px;line-height:125%;font-family:'Roboto Condensed';-inkscape-font-specification:'Roboto Condensed, Bold';letter-spacing:0px;word-spacing:0px;fill:#ffffff;fill-opacity:1;stroke:none;stroke-width:1px;stroke-linecap:butt;stroke-linejoin:miter;stroke-opacity:1"
       id="text16538" />
    <g
       id="g8140"
       style="fill:#dcdcdc"
       transform="translate(1.7857143,-76.428571)">
      <path
         inkscape:connector-curvature="0"
         id="rect16534"
         d="m 12.443359,-10.544922 0,2.2500001 0,21.8046879 44.232422,0 0,-24.054688 -44.232422,0 z m 4.5,4.5000001 35.232422,0 0,15.0546875 -35.232422,0 0,-15.0546875 z"
         style="color:#000000;font-style:normal;font-variant:normal;font-weight:normal;font-stretch:normal;font-size:medium;line-height:normal;font-family:sans-serif;text-indent:0;text-align:start;text-decoration:none;text-decoration-line:none;text-decoration-style:solid;text-decoration-color:#000000;letter-spacing:normal;word-spacing:normal;text-transform:none;direction:ltr;block-progression:tb;writing-mode:lr-tb;baseline-shift:baseline;text-anchor:start;white-space:normal;clip-rule:nonzero;display:inline;overflow:visible;visibility:visible;opacity:1;isolation:auto;mix-blend-mode:normal;color-interpolation:sRGB;color-interpolation-filters:linearRGB;solid-color:#000000;solid-opacity:1;fill:#dcdcdc;fill-opacity:1;fill-rule:nonzero;stroke:none;stroke-width:4.5;stroke-linecap:round;stroke-linejoin:miter;stroke-miterlimit:4;stroke-dasharray:none;stroke-dashoffset:0;stroke-opacity:1;color-rendering:auto;image-rendering:auto;shape-rendering:auto;text-rendering:auto;enable-background:accumulate" />
      <path
         id="path16536"
         transform="translate(11.925781,-10.878378)"
         d="m 22.033203,5.8007812 a 6.4397225,6.4397225 0 0 0 -6.439453,6.4414068 6.4397225,6.4397225 0 0 0 6.439453,6.439453 6.4397225,6.4397225 0 0 0 6.441406,-6.439453 6.4397225,6.4397225 0 0 0 -6.441406,-6.4414068 z m -0.480469,0.9179688 0.902344,0 0,1.3027344 c 0.286781,0.055763 0.546249,0.1591899 0.78125,0.3105468 0.235001,0.1473736 0.43435,0.3372645 0.597656,0.5722657 0.163306,0.2350011 0.289326,0.5133856 0.376954,0.8320312 0.09161,0.3146629 0.136718,0.6662999 0.136718,1.0566409 l -1.689453,0 c 0,-0.477969 -0.06958,-0.8353116 -0.208984,-1.0703128 -0.135424,-0.2350011 -0.314135,-0.3515624 -0.533203,-0.3515624 -0.119493,0 -0.221044,0.028221 -0.304688,0.083984 -0.08365,0.05178 -0.153222,0.1251096 -0.208984,0.2207031 -0.05576,0.091611 -0.09712,0.2006668 -0.125,0.3281248 -0.0239,0.123475 -0.03516,0.258877 -0.03516,0.40625 0,0.147374 0.01501,0.280899 0.04687,0.400391 0.03187,0.115509 0.08268,0.224565 0.150391,0.328125 0.07169,0.09958 0.161912,0.195499 0.273438,0.287109 0.115509,0.08763 0.254663,0.179797 0.417968,0.275391 0.326612,0.15534 0.625636,0.31521 0.896485,0.478516 0.270848,0.163305 0.504048,0.35132 0.699218,0.566406 0.195171,0.211102 0.34566,0.459389 0.449219,0.742187 0.107544,0.282798 0.160157,0.617549 0.160157,1.003907 0,0.346527 -0.04698,0.658685 -0.142579,0.9375 -0.09559,0.278814 -0.230994,0.519519 -0.40625,0.722656 -0.175255,0.203136 -0.389691,0.368635 -0.640625,0.496094 -0.24695,0.123475 -0.521505,0.204309 -0.824218,0.24414 l 0,1.189453 -0.896485,0 0,-1.189453 c -0.278815,-0.03983 -0.545787,-0.118789 -0.804687,-0.238281 -0.2589,-0.123475 -0.490223,-0.296479 -0.69336,-0.519531 -0.199153,-0.227035 -0.359023,-0.511049 -0.478515,-0.84961 -0.119493,-0.342544 -0.179688,-0.750624 -0.179688,-1.224609 l 1.691407,0 c 0,0.282798 0.02447,0.517874 0.07227,0.705078 0.05178,0.187204 0.11948,0.339569 0.203125,0.455078 0.08364,0.111526 0.177613,0.190485 0.285156,0.238281 0.111526,0.04381 0.228165,0.06641 0.347657,0.06641 0.131441,0 0.24425,-0.02635 0.339843,-0.07813 0.09958,-0.05178 0.182365,-0.121357 0.246094,-0.208985 0.06373,-0.09161 0.110711,-0.19879 0.142578,-0.322265 0.03187,-0.127459 0.04883,-0.264736 0.04883,-0.41211 0,-0.163306 -0.01696,-0.310041 -0.04883,-0.4375 -0.03187,-0.127458 -0.0826,-0.240267 -0.154297,-0.339844 -0.07169,-0.103559 -0.163864,-0.199481 -0.27539,-0.287109 -0.107543,-0.08763 -0.239192,-0.172215 -0.394531,-0.255859 -0.330595,-0.147374 -0.633372,-0.301615 -0.908204,-0.460938 -0.270848,-0.163306 -0.504048,-0.351397 -0.699218,-0.5625 -0.19517,-0.215086 -0.345582,-0.461419 -0.453125,-0.740234 -0.107543,-0.282798 -0.16211,-0.621301 -0.16211,-1.015625 0,-0.334578 0.04698,-0.6392308 0.142578,-0.9140626 0.09559,-0.2788149 0.230995,-0.521396 0.40625,-0.7285156 0.175255,-0.2071197 0.385939,-0.3763713 0.628907,-0.5078126 0.24695,-0.1314413 0.521505,-0.2179817 0.824218,-0.2578124 l 0,-1.2773438 z"
         style="opacity:1;fill:#dcdcdc;fill-opacity:1;stroke:none;stroke-width:4.5;stroke-linecap:round;stroke-linejoin:miter;stroke-miterlimit:4;stroke-dasharray:none;stroke-opacity:1"
         inkscape:connector-curvature="0" />
      <path
         inkscape:connector-curvature="0"
         style="opacity:1;fill:#dcdcdc;fill-opacity:1;stroke:none;stroke-width:4.5;stroke-linecap:round;stroke-linejoin:miter;stroke-miterlimit:4;stroke-dasharray:none;stroke-opacity:1"
         d="m 22.216286,16.514414 a 4.2933841,4.2933841 0 0 0 -4.293204,4.294507 4.2933841,4.2933841 0 0 0 4.293204,4.293204 4.2933841,4.2933841 0 0 0 4.294507,-4.293204 4.2933841,4.2933841 0 0 0 -4.294507,-4.294507 z m -0.32033,0.612013 0.601596,0 0,0.868537 c 0.191198,0.03718 0.364186,0.106133 0.520862,0.207043 0.156676,0.09825 0.289582,0.224855 0.398459,0.381531 0.108877,0.156676 0.192895,0.342276 0.251317,0.554718 0.06108,0.209786 0.09115,0.444224 0.09115,0.704466 l -1.126364,0 c 0,-0.318664 -0.04639,-0.556905 -0.13933,-0.713581 -0.09029,-0.156676 -0.209435,-0.234388 -0.355488,-0.234388 -0.07967,0 -0.147371,0.01881 -0.203137,0.056 -0.05577,0.03452 -0.102154,0.08341 -0.13933,0.147144 -0.03718,0.06108 -0.06475,0.133784 -0.08334,0.218761 -0.01593,0.08232 -0.02344,0.172594 -0.02344,0.270848 0,0.09825 0.01001,0.187277 0.03125,0.266942 0.02125,0.07701 0.05512,0.149719 0.100266,0.218762 0.0478,0.06639 0.107947,0.13034 0.182302,0.191417 0.07701,0.05842 0.169785,0.119871 0.278661,0.183604 0.217753,0.103566 0.417113,0.210151 0.597689,0.319028 0.180575,0.108876 0.336051,0.234226 0.466171,0.377625 0.130121,0.140742 0.230453,0.306276 0.299496,0.494818 0.0717,0.188543 0.106777,0.411722 0.106777,0.669308 0,0.231031 -0.03132,0.439148 -0.09506,0.625035 -0.06373,0.185886 -0.154004,0.346365 -0.270848,0.481797 -0.116843,0.135431 -0.259808,0.24577 -0.427107,0.330747 -0.164642,0.08232 -0.347689,0.136214 -0.549509,0.162769 l 0,0.793012 -0.597689,0 0,-0.793012 c -0.185887,-0.02656 -0.363878,-0.0792 -0.536488,-0.158862 -0.172609,-0.08232 -0.326833,-0.197664 -0.462265,-0.346373 -0.132771,-0.151369 -0.239356,-0.340722 -0.319022,-0.566442 -0.07967,-0.228375 -0.119799,-0.500443 -0.119799,-0.81645 l 1.127667,0 c 0,0.188542 0.01631,0.345268 0.04818,0.470077 0.03452,0.12481 0.07966,0.226392 0.135424,0.303402 0.05576,0.07435 0.118415,0.126997 0.190114,0.158863 0.07436,0.02921 0.152118,0.04428 0.231784,0.04428 0.08763,0 0.162842,-0.01756 0.226575,-0.05209 0.06639,-0.03452 0.121583,-0.08091 0.164071,-0.139331 0.04249,-0.06108 0.07381,-0.132534 0.09506,-0.214855 0.02125,-0.08498 0.03256,-0.1765 0.03256,-0.274755 0,-0.108876 -0.01131,-0.206705 -0.03256,-0.291683 -0.02125,-0.08498 -0.05507,-0.160186 -0.10287,-0.226575 -0.0478,-0.06904 -0.109249,-0.132994 -0.183603,-0.191416 -0.0717,-0.05842 -0.15947,-0.114816 -0.263035,-0.170582 -0.220409,-0.09826 -0.422272,-0.201088 -0.605503,-0.307309 -0.180575,-0.108877 -0.33605,-0.234278 -0.466171,-0.375021 -0.13012,-0.143398 -0.230401,-0.307629 -0.3021,-0.493516 -0.0717,-0.188542 -0.108079,-0.414223 -0.108079,-0.677121 0,-0.223064 0.03132,-0.426176 0.09506,-0.609408 0.06373,-0.185887 0.154005,-0.347616 0.270848,-0.485704 0.116843,-0.138087 0.257307,-0.250927 0.419295,-0.33856 0.164642,-0.08763 0.347689,-0.145329 0.549509,-0.171884 l 0,-0.85161 z"
         id="path16548" />
      <path
         id="path16550"
         d="m 47.722312,21.943984 a 6.4397225,6.4397225 0 0 0 -6.439453,6.441406 6.4397225,6.4397225 0 0 0 6.439453,6.439453 6.4397225,6.4397225 0 0 0 6.441406,-6.439453 6.4397225,6.4397225 0 0 0 -6.441406,-6.441406 z m -0.480469,0.917968 0.902344,0 0,1.302735 c 0.286781,0.05576 0.546249,0.15919 0.78125,0.310547 0.235001,0.147373 0.43435,0.337264 0.597656,0.572265 0.163306,0.235001 0.289326,0.513386 0.376954,0.832032 0.09161,0.314662 0.136718,0.666299 0.136718,1.05664 l -1.689453,0 c 0,-0.477969 -0.06958,-0.835311 -0.208984,-1.070312 -0.135424,-0.235001 -0.314135,-0.351563 -0.533203,-0.351563 -0.119493,0 -0.221044,0.02822 -0.304688,0.08399 -0.08365,0.05178 -0.153222,0.125109 -0.208984,0.220703 -0.05576,0.09161 -0.09712,0.200666 -0.125,0.328124 -0.0239,0.123475 -0.03516,0.258877 -0.03516,0.40625 0,0.147374 0.01501,0.280899 0.04687,0.400391 0.03187,0.115509 0.08268,0.224565 0.150391,0.328125 0.07169,0.09958 0.161912,0.195499 0.273438,0.287109 0.115509,0.08763 0.254663,0.179797 0.417968,0.275391 0.326612,0.15534 0.625636,0.31521 0.896485,0.478516 0.270848,0.163305 0.504048,0.35132 0.699218,0.566406 0.195171,0.211102 0.34566,0.459389 0.449219,0.742187 0.107544,0.282798 0.160157,0.617549 0.160157,1.003907 0,0.346527 -0.04698,0.658685 -0.142579,0.9375 -0.09559,0.278814 -0.230994,0.519519 -0.40625,0.722656 -0.175255,0.203136 -0.389691,0.368635 -0.640625,0.496094 -0.24695,0.123475 -0.521505,0.204309 -0.824218,0.24414 l 0,1.189453 -0.896485,0 0,-1.189453 c -0.278815,-0.03983 -0.545787,-0.118789 -0.804687,-0.238281 -0.2589,-0.123475 -0.490223,-0.296479 -0.69336,-0.519531 C 45.41769,32.050933 45.25782,31.766919 45.138328,31.428358 45.018835,31.085814 44.95864,30.677734 44.95864,30.203749 l 1.691407,0 c 0,0.282798 0.02446,0.517874 0.07227,0.705078 0.05178,0.187204 0.11948,0.339569 0.203125,0.455078 0.08364,0.111526 0.177613,0.190485 0.285156,0.238281 0.111526,0.04381 0.228165,0.06641 0.347657,0.06641 0.131441,0 0.24425,-0.02634 0.339843,-0.07813 0.09958,-0.05178 0.182365,-0.121357 0.246094,-0.208985 0.06373,-0.09161 0.110711,-0.19879 0.142578,-0.322265 0.03187,-0.127459 0.04883,-0.264736 0.04883,-0.41211 0,-0.163306 -0.01696,-0.310041 -0.04883,-0.4375 -0.03187,-0.127458 -0.0826,-0.240267 -0.154297,-0.339844 -0.07169,-0.103559 -0.163864,-0.199481 -0.27539,-0.287109 C 47.74954,29.495023 47.617891,29.410438 47.462552,29.326794 47.131957,29.17942 46.82918,29.025179 46.554348,28.865856 46.2835,28.70255 46.0503,28.514459 45.85513,28.303356 45.65996,28.08827 45.509548,27.841937 45.402005,27.563122 c -0.107543,-0.282798 -0.16211,-0.621301 -0.16211,-1.015625 0,-0.334578 0.04698,-0.63923 0.142578,-0.914062 0.09559,-0.278815 0.230995,-0.521396 0.40625,-0.728516 0.175255,-0.207119 0.385939,-0.376371 0.628907,-0.507812 0.24695,-0.131442 0.521505,-0.217982 0.824218,-0.257813 l 0,-1.277344 z"
         style="opacity:1;fill:#dcdcdc;fill-opacity:1;stroke:none;stroke-width:4.5;stroke-linecap:round;stroke-linejoin:miter;stroke-miterlimit:4;stroke-dasharray:none;stroke-opacity:1"
         inkscape:connector-curvature="0" />
      <path
         inkscape:connector-curvature="0"
         style="opacity:1;fill:#dcdcdc;fill-opacity:1;stroke:none;stroke-width:4.5;stroke-linecap:round;stroke-linejoin:miter;stroke-miterlimit:4;stroke-dasharray:none;stroke-opacity:1"
         d="m 36.358383,14.241571 a 4.5458945,4.5458945 0 0 0 -4.545704,4.547083 4.5458945,4.5458945 0 0 0 4.545704,4.545704 4.5458945,4.5458945 0 0 0 4.547083,-4.545704 4.5458945,4.5458945 0 0 0 -4.547083,-4.547083 z m -0.33917,0.648007 0.636978,0 0,0.919619 c 0.202443,0.03936 0.385605,0.112375 0.551496,0.21922 0.16589,0.104033 0.306614,0.23808 0.421894,0.40397 0.11528,0.165891 0.204239,0.362407 0.266097,0.587344 0.06467,0.222125 0.09651,0.47035 0.09651,0.745898 l -1.192609,0 c 0,-0.337405 -0.04912,-0.589658 -0.147525,-0.755549 -0.0956,-0.165891 -0.221753,-0.248174 -0.376396,-0.248174 -0.08435,0 -0.156038,0.01992 -0.215084,0.05929 -0.05905,0.03655 -0.108161,0.08832 -0.147524,0.155798 -0.03936,0.06467 -0.06856,0.141653 -0.08824,0.231627 -0.01687,0.08716 -0.02482,0.182745 -0.02482,0.286778 0,0.104034 0.0106,0.198291 0.03309,0.282642 0.0225,0.08154 0.05837,0.158524 0.106163,0.231628 0.05061,0.07029 0.114296,0.138006 0.193024,0.202675 0.08154,0.06186 0.17977,0.126921 0.295049,0.194402 0.230561,0.109657 0.441646,0.222512 0.632842,0.337792 0.191196,0.115279 0.355815,0.248002 0.493588,0.399834 0.137775,0.14902 0.244007,0.324289 0.317111,0.523921 0.07592,0.199631 0.113057,0.435937 0.113057,0.708672 0,0.244619 -0.03316,0.464976 -0.100649,0.661795 -0.06748,0.196819 -0.163062,0.366736 -0.286777,0.510134 -0.123716,0.143396 -0.275089,0.260225 -0.452227,0.3502 -0.174326,0.08716 -0.368138,0.144225 -0.581828,0.172342 l 0,0.839652 -0.632842,0 0,-0.839652 c -0.196819,-0.02812 -0.385279,-0.08386 -0.56804,-0.168206 -0.182761,-0.08716 -0.346055,-0.209289 -0.489453,-0.366745 -0.140579,-0.160271 -0.253434,-0.36076 -0.337785,-0.599755 -0.08435,-0.241807 -0.126844,-0.529877 -0.126844,-0.86447 l 1.193989,0 c 0,0.199631 0.01727,0.365575 0.05102,0.497725 0.03655,0.13215 0.08434,0.239707 0.143389,0.321246 0.05904,0.07873 0.12538,0.134466 0.201296,0.168206 0.07873,0.03093 0.161065,0.04688 0.245416,0.04688 0.09279,0 0.17242,-0.01859 0.2399,-0.05515 0.0703,-0.03655 0.128734,-0.08567 0.173721,-0.147526 0.04499,-0.06467 0.07815,-0.140328 0.100648,-0.227491 0.0225,-0.08997 0.03447,-0.186881 0.03447,-0.290915 0,-0.11528 -0.01197,-0.218862 -0.03447,-0.308837 -0.0225,-0.08998 -0.05831,-0.169608 -0.10892,-0.239901 -0.05061,-0.0731 -0.115674,-0.140817 -0.194402,-0.202675 -0.07592,-0.06186 -0.168849,-0.121569 -0.278505,-0.180614 -0.233372,-0.104034 -0.447107,-0.212915 -0.641115,-0.325383 -0.191195,-0.11528 -0.355815,-0.248056 -0.493588,-0.397077 -0.137773,-0.151833 -0.243951,-0.325723 -0.319868,-0.522542 -0.07592,-0.199631 -0.114435,-0.438586 -0.114435,-0.716945 0,-0.236183 0.03316,-0.451242 0.100648,-0.64525 0.06748,-0.196819 0.163062,-0.368061 0.286777,-0.51427 0.123715,-0.146208 0.27244,-0.265686 0.443955,-0.358472 0.174326,-0.09279 0.368138,-0.153877 0.581828,-0.181994 l 0,-0.901696 z"
         id="path16552" />
      <path
         id="path16554"
         d="m 28.971939,25.984595 a 2.5889388,2.5889388 0 0 0 -2.58883,2.589616 2.5889388,2.5889388 0 0 0 2.58883,2.58883 2.5889388,2.5889388 0 0 0 2.589616,-2.58883 2.5889388,2.5889388 0 0 0 -2.589616,-2.589616 z m -0.193161,0.369047 0.362766,0 0,0.523734 c 0.115294,0.02242 0.219607,0.064 0.314084,0.124848 0.09448,0.05925 0.17462,0.13559 0.240273,0.230066 0.06565,0.09448 0.116316,0.206395 0.151545,0.334499 0.03683,0.126503 0.05496,0.26787 0.05496,0.424797 l -0.679205,0 c 0,-0.192156 -0.02797,-0.335817 -0.08402,-0.430293 -0.05445,-0.09448 -0.126291,-0.141338 -0.214362,-0.141338 -0.04804,0 -0.08887,0.01134 -0.122492,0.03377 -0.03363,0.02082 -0.0616,0.0503 -0.08402,0.08873 -0.02242,0.03683 -0.03905,0.08067 -0.05025,0.131914 -0.0096,0.04964 -0.01413,0.104075 -0.01413,0.163323 0,0.05925 0.006,0.112929 0.01884,0.160968 0.01281,0.04644 0.03324,0.09028 0.06046,0.131915 0.02882,0.04003 0.06509,0.0786 0.10993,0.115426 0.04644,0.03523 0.102381,0.07228 0.168033,0.110714 0.131308,0.06245 0.251523,0.126723 0.360411,0.192376 0.108888,0.06565 0.202641,0.14124 0.281104,0.22771 0.07847,0.08487 0.138965,0.184686 0.180598,0.298379 0.04324,0.113692 0.06439,0.248271 0.06439,0.403597 0,0.139313 -0.01888,0.264809 -0.05732,0.3769 -0.03843,0.11209 -0.09287,0.20886 -0.163323,0.290527 -0.07046,0.08167 -0.156666,0.148201 -0.257548,0.199443 -0.09928,0.04964 -0.209659,0.08214 -0.331358,0.09815 l 0,0.478191 -0.360411,0 0,-0.478191 c -0.11209,-0.01602 -0.21942,-0.04776 -0.323505,-0.0958 -0.104084,-0.04964 -0.197082,-0.119192 -0.278749,-0.208865 -0.08006,-0.09128 -0.144334,-0.205457 -0.192372,-0.341567 -0.04804,-0.137712 -0.07224,-0.301771 -0.07224,-0.492326 l 0.679991,0 c 0,0.113692 0.0098,0.208199 0.02906,0.28346 0.02082,0.07526 0.04803,0.136516 0.08166,0.182953 0.03362,0.04484 0.0714,0.07658 0.11464,0.0958 0.04484,0.01761 0.09173,0.0267 0.139768,0.0267 0.05284,0 0.09819,-0.01059 0.136625,-0.03141 0.04004,-0.02082 0.07332,-0.04879 0.09894,-0.08402 0.02562,-0.03683 0.04451,-0.07992 0.05732,-0.129559 0.01281,-0.05124 0.01963,-0.106431 0.01963,-0.165679 0,-0.06565 -0.0068,-0.124645 -0.01963,-0.175886 -0.01281,-0.05125 -0.03321,-0.09659 -0.06203,-0.136627 -0.02882,-0.04163 -0.06588,-0.0802 -0.110714,-0.115425 -0.04324,-0.03523 -0.09616,-0.06924 -0.158611,-0.102862 -0.132909,-0.05925 -0.254633,-0.121258 -0.365123,-0.18531 -0.108888,-0.06565 -0.202641,-0.14127 -0.281104,-0.226139 -0.07846,-0.08647 -0.138933,-0.185503 -0.182168,-0.297594 -0.04324,-0.113692 -0.06517,-0.24978 -0.06517,-0.408308 0,-0.134509 0.01889,-0.256988 0.05732,-0.367478 0.03843,-0.11209 0.09287,-0.209615 0.163323,-0.292882 0.07046,-0.08327 0.155157,-0.151311 0.252837,-0.204154 0.09928,-0.05285 0.209659,-0.08763 0.331358,-0.103648 l 0,-0.513526 z"
         style="opacity:1;fill:#dcdcdc;fill-opacity:1;stroke:none;stroke-width:4.5;stroke-linecap:round;stroke-linejoin:miter;stroke-miterlimit:4;stroke-dasharray:none;stroke-opacity:1"
         inkscape:connector-curvature="0" />
    </g>
    <path
       style="opacity:1;fill:#ffffff;fill-opacity:1;stroke:none;stroke-width:0.69999999;stroke-linecap:round;stroke-linejoin:miter;stroke-miterlimit:4;stroke-dasharray:none;stroke-opacity:1"
       d="M 0.9453125 12.347656 L 0.9453125 33.119141 L 4.1621094 33.119141 A 4.9553571 4.9553571 0 0 1 7.7226562 31.601562 A 4.9553571 4.9553571 0 0 1 11.289062 33.119141 L 30.357422 33.119141 L 30.357422 12.347656 L 0.9453125 12.347656 z "
       transform="translate(11.925781,-10.878378)"
       id="rect10563" />
    <path
       style="opacity:1;fill:#ffffff;fill-opacity:1;stroke:none;stroke-width:0.69999999;stroke-linecap:round;stroke-linejoin:miter;stroke-miterlimit:4;stroke-dasharray:none;stroke-opacity:1"
       d="M 30.982422 18.386719 L 30.982422 36.066406 L 32.613281 36.066406 A 4.9553571 4.9553571 0 0 1 37.544922 31.601562 A 4.9553571 4.9553571 0 0 1 42.470703 36.066406 L 44.107422 36.066406 L 41.517578 18.386719 L 30.982422 18.386719 z "
       transform="translate(11.925781,-10.878378)"
       id="rect10565" />
    <circle
       r="4.5535712"
       cy="26.080509"
       cx="19.648996"
       id="circle10574"
       style="opacity:1;fill:#ffffff;fill-opacity:1;stroke:none;stroke-width:0.69999999;stroke-linecap:round;stroke-linejoin:miter;stroke-miterlimit:4;stroke-dasharray:none;stroke-opacity:1" />
    <circle
       style="opacity:1;fill:#ffffff;fill-opacity:1;stroke:none;stroke-width:0.69999999;stroke-linecap:round;stroke-linejoin:miter;stroke-miterlimit:4;stroke-dasharray:none;stroke-opacity:1"
       id="circle10580"
       cx="49.559711"
       cy="26.080509"
       r="4.5535712" />
  </g>
</svg>
